<?xml version="1.0" encoding="UTF-8" standalone="no"?>
<!-- Created with Inkscape (http://www.inkscape.org/) -->

<svg
   xmlns:dc="http://purl.org/dc/elements/1.1/"
   xmlns:cc="http://creativecommons.org/ns#"
   xmlns:rdf="http://www.w3.org/1999/02/22-rdf-syntax-ns#"
   xmlns:svg="http://www.w3.org/2000/svg"
   xmlns="http://www.w3.org/2000/svg"
   xmlns:sodipodi="http://sodipodi.sourceforge.net/DTD/sodipodi-0.dtd"
   xmlns:inkscape="http://www.inkscape.org/namespaces/inkscape"
   width="210mm"
   height="297mm"
   viewBox="0 0 744.09448819 1052.3622047"
   id="svg2"
   version="1.1"
   inkscape:version="0.91 r13725"
   sodipodi:docname="drawing-1.svg">
  <defs
     id="defs4">
    <pattern
       y="0"
       x="0"
       height="6"
       width="6"
       patternUnits="userSpaceOnUse"
       id="EMFhbasepattern" />
  </defs>
  <sodipodi:namedview
     id="base"
     pagecolor="#ffffff"
     bordercolor="#666666"
     borderopacity="1.0"
     inkscape:pageopacity="0.0"
     inkscape:pageshadow="2"
     inkscape:zoom="0.98994949"
     inkscape:cx="225.08152"
     inkscape:cy="269.60024"
     inkscape:document-units="px"
     inkscape:current-layer="layer1"
     showgrid="false"
     inkscape:window-width="1920"
     inkscape:window-height="1027"
     inkscape:window-x="-8"
     inkscape:window-y="-8"
     inkscape:window-maximized="1" />
  <metadata
     id="metadata7">
    <rdf:RDF>
      <cc:Work
         rdf:about="">
        <dc:format>image/svg+xml</dc:format>
        <dc:type
           rdf:resource="http://purl.org/dc/dcmitype/StillImage" />
        <dc:title></dc:title>
      </cc:Work>
    </rdf:RDF>
  </metadata>
  <g
     inkscape:label="Layer 1"
     inkscape:groupmode="layer"
     id="layer1">
    <g
       id="g4296"
       transform="translate(-156.22682,261.84982)"
       inkscape:export-xdpi="90"
       inkscape:export-ydpi="90">
      <path
         inkscape:connector-curvature="0"
         id="path3336"
         d="m 176.16244,431.81252 445.71429,0"
         style="fill:none;fill-rule:evenodd;stroke:#000000;stroke-width:1;stroke-linecap:butt;stroke-linejoin:miter;stroke-miterlimit:4;stroke-dasharray:4, 1;stroke-dashoffset:0;stroke-opacity:1" />
      <rect
         y="421.01685"
         x="322.46204"
         height="20.203051"
         width="94.954338"
         id="rect4138"
         style="fill:#00c142;fill-opacity:1;stroke:#00b700;stroke-width:1;stroke-miterlimit:4;stroke-dasharray:4, 1;stroke-dashoffset:0;stroke-opacity:1" />
      <path
         inkscape:connector-curvature="0"
         id="path3336-8"
         d="m 156.75205,685.06257 445.71429,0"
         style="fill:none;fill-rule:evenodd;stroke:#000000;stroke-width:1;stroke-linecap:butt;stroke-linejoin:miter;stroke-miterlimit:4;stroke-dasharray:4, 1;stroke-dashoffset:0;stroke-opacity:1" />
      <g
         transform="matrix(0.96859627,0.24863882,-0.24863882,0.96859627,60.987372,382.86234)"
         id="g4241">
        <path
           style="fill:none;fill-opacity:1;stroke:#000000;stroke-width:0.51525569;stroke-miterlimit:4;stroke-dasharray:2.06102265, 0.51525565;stroke-dashoffset:0;stroke-opacity:1"
           id="path4163"
           sodipodi:type="arc"
           sodipodi:cx="385.87823"
           sodipodi:cy="262.92792"
           sodipodi:rx="48.729752"
           sodipodi:ry="15.899787"
           sodipodi:start="0"
           sodipodi:end="6.2504604"
           d="m 434.60799,262.92792 a 48.729752,15.899787 0 0 1 -48.33109,15.89925 48.729752,15.899787 0 0 1 -49.12189,-15.6391 48.729752,15.899787 0 0 1 47.52734,-16.15515 48.729752,15.899787 0 0 1 49.89955,15.37477"
           sodipodi:open="true" />
        <path
           style="fill:#000000;fill-opacity:1;stroke:#000000;stroke-width:1;stroke-miterlimit:4;stroke-dasharray:4, 1;stroke-dashoffset:0;stroke-opacity:1"
           id="path4165"
           sodipodi:type="arc"
           sodipodi:cx="385.3732"
           sodipodi:cy="262.92801"
           sodipodi:rx="19.697975"
           sodipodi:ry="19.697975"
           sodipodi:start="0"
           sodipodi:end="6.2504604"
           d="m 405.07117,262.92801 a 19.697975,19.697975 0 0 1 -19.53682,19.69731 19.697975,19.697975 0 0 1 -19.85649,-19.37502 19.697975,19.697975 0 0 1 19.21193,-20.01433 19.697975,19.697975 0 0 1 20.17084,19.04754"
           sodipodi:open="true" />
        <path
           style="fill:none;fill-opacity:1;stroke:#000000;stroke-width:0.25358054;stroke-miterlimit:4;stroke-dasharray:1.01432206, 0.25358051;stroke-dashoffset:0;stroke-opacity:1"
           id="path4163-1"
           sodipodi:type="arc"
           sodipodi:cx="381.39713"
           sodipodi:cy="358.8721"
           sodipodi:rx="23.606764"
           sodipodi:ry="7.9494162"
           sodipodi:start="0"
           sodipodi:end="6.2504604"
           d="m 405.00389,358.8721 a 23.606764,7.9494162 0 0 1 -23.41363,7.94915 23.606764,7.9494162 0 0 1 -23.79674,-7.81908 23.606764,7.9494162 0 0 1 23.02427,-8.07709 23.606764,7.9494162 0 0 1 24.17346,7.68692"
           sodipodi:open="true"
           transform="matrix(0.97104798,-0.23888452,0.23888452,0.97104798,0,0)" />
        <path
           style="fill:none;fill-opacity:1;stroke:#000000;stroke-width:0.26919383;stroke-miterlimit:4;stroke-dasharray:1.07677524, 0.2691938;stroke-dashoffset:0;stroke-opacity:1"
           id="path4163-1-4"
           sodipodi:type="arc"
           sodipodi:cx="378.89236"
           sodipodi:cy="408.87662"
           sodipodi:rx="26.629414"
           sodipodi:ry="7.9416084"
           sodipodi:start="0"
           sodipodi:end="6.2504604"
           d="m 405.52178,408.87662 a 26.629414,7.9416084 0 0 1 -26.41156,7.94134 26.629414,7.9416084 0 0 1 -26.8437,-7.8114 26.629414,7.9416084 0 0 1 25.97233,-8.06916 26.629414,7.9416084 0 0 1 27.26867,7.67938"
           sodipodi:open="true"
           transform="matrix(0.93016077,-0.36715248,0.36715248,0.93016077,0,0)" />
        <path
           style="fill:none;fill-opacity:1;stroke:#000000;stroke-width:0.25358054;stroke-miterlimit:4;stroke-dasharray:1.01432206, 0.25358051;stroke-dashoffset:0;stroke-opacity:1"
           id="path4163-1-8"
           sodipodi:type="arc"
           sodipodi:cx="-366.8317"
           sodipodi:cy="176.19418"
           sodipodi:rx="23.606764"
           sodipodi:ry="7.9494162"
           sodipodi:start="0"
           sodipodi:end="6.2504604"
           d="m -343.22493,176.19418 a 23.606764,7.9494162 0 0 1 -23.41364,7.94915 23.606764,7.9494162 0 0 1 -23.79673,-7.81908 23.606764,7.9494162 0 0 1 23.02427,-8.07709 23.606764,7.9494162 0 0 1 24.17346,7.68693"
           sodipodi:open="true"
           transform="matrix(-0.97104798,-0.23888452,-0.23888452,0.97104798,0,0)" />
        <path
           style="fill:none;fill-opacity:1;stroke:#000000;stroke-width:0.26919383;stroke-miterlimit:4;stroke-dasharray:1.07677524, 0.2691938;stroke-dashoffset:0;stroke-opacity:1"
           id="path4163-1-4-0"
           sodipodi:type="arc"
           sodipodi:cx="-338.01822"
           sodipodi:cy="127.35083"
           sodipodi:rx="26.629414"
           sodipodi:ry="7.9416084"
           sodipodi:start="0"
           sodipodi:end="6.2504604"
           d="m -311.38881,127.35083 a 26.629414,7.9416084 0 0 1 -26.41155,7.94134 26.629414,7.9416084 0 0 1 -26.84371,-7.8114 26.629414,7.9416084 0 0 1 25.97233,-8.06916 26.629414,7.9416084 0 0 1 27.26868,7.67938"
           sodipodi:open="true"
           transform="matrix(-0.93016077,-0.36715248,-0.36715248,0.93016077,0,0)" />
        <path
           style="fill:#000000;fill-opacity:1;stroke:#000000;stroke-width:1;stroke-miterlimit:4;stroke-dasharray:4, 1;stroke-dashoffset:0;stroke-opacity:1"
           id="path4215"
           sodipodi:type="arc"
           sodipodi:cx="327.61853"
           sodipodi:cy="9.9615831"
           sodipodi:rx="11.111678"
           sodipodi:ry="6.0609155"
           sodipodi:start="0"
           sodipodi:end="6.2504604"
           sodipodi:open="true"
           d="m 338.73021,9.9615831 a 11.111678,6.0609155 0 0 1 -11.02077,6.0607129 11.111678,6.0609155 0 0 1 -11.2011,-5.961546 11.111678,6.0609155 0 0 1 10.8375,-6.1582569 11.111678,6.0609155 0 0 1 11.37842,5.8607825"
           transform="matrix(0.74188468,0.67052749,-0.67052749,0.74188468,0,0)"
           inkscape:transform-center-x="-11.111207"
           inkscape:transform-center-y="65.659574" />
        <path
           style="fill:#000000;fill-opacity:1;stroke:#000000;stroke-width:1;stroke-miterlimit:4;stroke-dasharray:4, 1;stroke-dashoffset:0;stroke-opacity:1"
           id="path4215-4"
           sodipodi:type="arc"
           sodipodi:cx="-245.46954"
           sodipodi:cy="523.84265"
           sodipodi:rx="11.111678"
           sodipodi:ry="6.0609155"
           sodipodi:start="0"
           sodipodi:end="6.2504604"
           sodipodi:open="true"
           d="m -234.35787,523.84265 a 11.111678,6.0609155 0 0 1 -11.02077,6.06071 11.111678,6.0609155 0 0 1 -11.20109,-5.96154 11.111678,6.0609155 0 0 1 10.83749,-6.15826 11.111678,6.0609155 0 0 1 11.37843,5.86078"
           transform="matrix(-0.74188468,0.67052749,0.67052749,0.74188468,0,0)"
           inkscape:transform-center-x="11.111218"
           inkscape:transform-center-y="65.659562" />
      </g>
      <path
         inkscape:connector-curvature="0"
         id="path3336-8-8"
         d="m 156.35114,679.20622 431.7172,110.82187"
         style="fill:none;fill-rule:evenodd;stroke:#000000;stroke-width:1;stroke-linecap:butt;stroke-linejoin:miter;stroke-miterlimit:4;stroke-dasharray:4, 1;stroke-dashoffset:0;stroke-opacity:1" />
      <text
         xml:space="preserve"
         style="font-style:normal;font-variant:normal;font-weight:400;font-size:3.38666677px;font-family:Calibri;text-align:start;letter-spacing:0px;word-spacing:0px;text-anchor:start;fill:#ff6400;fill-opacity:1;stroke:none"
         x="231.32802 231.32802"
         y="719.79816 719.79816"
         id="text4271"><tspan
           style="font-size:27.5px;fill:#ff6400;fill-opacity:1"
           sodipodi:role="line"
           x="231.32802 231.32802"
           y="719.79816 719.79816"
           id="tspan4273"><tspan
             dx="0 0 0"
             dy="0 0 0"
             style="font-style:normal;font-variant:normal;font-weight:400;font-size:27.5px;font-family:Calibri;fill:#ff6400;fill-opacity:1"
             id="tspan4275">α</tspan></tspan></text>
      <path
         d="m 241.63969,684.95856 a 56.333599,56.333599 0 0 1 -2.6577,17.09889 l -53.6759,-17.09889 z"
         sodipodi:end="0.30839442"
         sodipodi:start="0"
         sodipodi:ry="56.333599"
         sodipodi:rx="56.333599"
         sodipodi:cy="684.95856"
         sodipodi:cx="185.30609"
         sodipodi:type="arc"
         id="path4288"
         style="fill:none;fill-opacity:1;stroke:#ff6400;stroke-width:2.59383345;stroke-miterlimit:4;stroke-dasharray:10.37533383, 2.59383346;stroke-dashoffset:0;stroke-opacity:1" />
      <text
         transform="scale(1.1188,0.8938148)"
         sodipodi:linespacing="125%"
         id="text4292"
         y="488.60217"
         x="289.51901"
         style="font-style:normal;font-weight:normal;font-size:21.15621758px;line-height:125%;font-family:sans-serif;letter-spacing:0px;word-spacing:0px;fill:#000000;fill-opacity:1;stroke:none;stroke-width:1px;stroke-linecap:butt;stroke-linejoin:miter;stroke-opacity:1"
         xml:space="preserve"><tspan
           style="fill:#ffffff;fill-opacity:1"
           y="488.60217"
           x="289.51901"
           id="tspan4294"
           sodipodi:role="line">KINECT</tspan></text>
    </g>
  </g>
</svg>
